<?xml version="1.0" encoding="utf-8"?>
<!-- Generator: Adobe Illustrator 23.0.1, SVG Export Plug-In . SVG Version: 6.00 Build 0)  -->
<svg version="1.1" id="Слой_1" xmlns="http://www.w3.org/2000/svg" xmlns:xlink="http://www.w3.org/1999/xlink" x="0px" y="0px"
	 viewBox="0 0 242.7 67" style="enable-background:new 0 0 242.7 67;" xml:space="preserve">
<path d="M46.5,13.2v53.7h-0.3L10.1,34.3l0.2,30.5H0V11.2h0.4l36,33l-0.2-31H46.5z"/>
<path d="M60.2,25.9c2.4-4.1,5.6-7.3,9.6-9.7s8.4-3.6,13.1-3.6S92,13.8,96,16.2s7.3,5.6,9.7,9.7s3.6,8.4,3.6,13.1
	c0,4.8-1.2,9.2-3.6,13.2c-2.4,4-5.6,7.2-9.7,9.6c-4,2.4-8.4,3.6-13.1,3.6c-4.8,0-9.2-1.2-13.2-3.5c-4-2.4-7.2-5.5-9.6-9.6
	c-2.4-4-3.5-8.4-3.5-13.2C56.6,34.4,57.8,30,60.2,25.9z M69.3,47.3c1.4,2.5,3.4,4.5,5.8,6c2.5,1.5,5.2,2.2,8.2,2.2
	c2.9,0,5.5-0.7,7.9-2.2c2.4-1.5,4.2-3.5,5.6-6c1.4-2.5,2-5.3,2-8.3c0-3.1-0.7-5.9-2.1-8.4c-1.4-2.5-3.3-4.5-5.7-6s-5.1-2.2-8-2.2
	c-2.9,0-5.6,0.7-8,2.2c-2.4,1.5-4.3,3.5-5.7,6s-2.1,5.3-2.1,8.4C67.1,42,67.8,44.8,69.3,47.3z"/>
<path d="M154.6,13v9.8h-25v11h22.1v9.8h-22.1v11.1h26v9.8l-36.2,0.1V13H154.6z M139.7,9.7h-6l5.5-9.5h10.9L139.7,9.7z"/>
<path d="M219.2,10.8v53.7H209V39.9l-16.8,23.9h-0.1l-16.2-22.3v23.1h-9.8V10.9h0.1L192.3,48l26.8-37.1h0.1V10.8z"/>
<path d="M242.7,12.9v51.6h-10.2V12.9L242.7,12.9z"/>
</svg>
